<svg width="20" height="20" viewBox="0 0 20 20" fill="none" xmlns="http://www.w3.org/2000/svg">
<path d="M9.99993 19.7142C4.6285 19.7142 0.285645 15.3714 0.285645 9.99993C0.285645 4.6285 4.6285 0.285645 9.99993 0.285645C15.3714 0.285645 19.7142 4.6285 19.7142 9.99993C19.7142 15.3714 15.3714 19.7142 9.99993 19.7142ZM9.99993 1.4285C5.25707 1.4285 1.4285 5.25707 1.4285 9.99993C1.4285 14.7428 5.25707 18.5714 9.99993 18.5714C14.7428 18.5714 18.5714 14.7428 18.5714 9.99993C18.5714 5.25707 14.7428 1.4285 9.99993 1.4285Z" fill="#111827"/>
<path d="M7.02838 6.91406C7.1998 6.45692 7.37123 6.11406 7.71409 5.82835C7.9998 5.54263 8.34266 5.31406 8.7998 5.14263C9.25695 4.97121 9.71409 4.91406 10.2284 4.91406C10.6284 4.91406 11.0284 4.9712 11.3712 5.08549C11.7141 5.19978 12.0569 5.3712 12.3427 5.59978C12.6284 5.82835 12.8569 6.11406 12.9712 6.45692C13.1427 6.79978 13.1998 7.19978 13.1998 7.59978C13.1998 8.17121 13.0855 8.62835 12.8569 9.02835C12.6284 9.42835 12.2855 9.77121 11.9427 10.1712L11.1998 10.9141C11.0284 11.0855 10.8569 11.2569 10.7998 11.4284C10.6855 11.5998 10.6284 11.8284 10.6284 12.0569C10.5712 12.2855 10.5712 12.4569 10.5712 12.9141H9.65695C9.65695 12.4569 9.65695 12.2855 9.71409 11.9426C9.77123 11.6569 9.88552 11.3712 9.9998 11.0855C10.1141 10.8569 10.2855 10.6284 10.5141 10.3998C10.7427 10.1712 11.0284 9.94264 11.3141 9.59978C11.5998 9.31406 11.8284 9.02835 11.9998 8.74263C12.1712 8.45692 12.2855 8.05692 12.2855 7.71406C12.2855 7.42835 12.2284 7.14263 12.1141 6.91406C11.9998 6.68549 11.8284 6.45692 11.6569 6.28549C11.4855 6.11406 11.2569 5.99978 10.9712 5.88549C10.6855 5.77121 10.4569 5.71406 10.1712 5.71406C9.77123 5.71406 9.42838 5.77121 9.14266 5.94263C8.85695 6.05692 8.57123 6.28549 8.39981 6.51406C8.22838 6.74263 8.05695 7.02835 7.94266 7.37121C7.82838 7.71406 7.71409 7.88549 7.71409 8.28549H6.7998C6.7998 7.77121 6.85695 7.37121 7.02838 6.91406ZM10.5712 13.9998V15.1426H9.42838V13.9998H10.5712Z" fill="#111827"/>
</svg>
