<svg width="16" height="16" viewBox="0 0 16 16" fill="none" xmlns="http://www.w3.org/2000/svg">
<path d="M14.3334 4C14.3334 4.16329 14.2734 4.32089 14.1649 4.44291C14.0564 4.56494 13.9069 4.6429 13.7447 4.662L13.6667 4.66667H13.1034L12.2827 13.0133C12.2381 13.4662 12.0265 13.8863 11.6893 14.1919C11.352 14.4975 10.9132 14.6667 10.4581 14.6667H5.54208C5.08698 14.6667 4.64813 14.4975 4.31088 14.1919C3.97363 13.8863 3.7621 13.4662 3.71741 13.0133L2.89675 4.66667H2.33341C2.1566 4.66667 1.98703 4.59643 1.86201 4.4714C1.73699 4.34638 1.66675 4.17681 1.66675 4C1.66675 3.82319 1.73699 3.65362 1.86201 3.5286C1.98703 3.40357 2.1566 3.33333 2.33341 3.33333H5.66675C5.66675 3.02692 5.7271 2.7235 5.84436 2.44041C5.96162 2.15731 6.1335 1.90009 6.35017 1.68342C6.56684 1.46675 6.82406 1.29488 7.10715 1.17761C7.39025 1.06035 7.69366 1 8.00008 1C8.3065 1 8.60992 1.06035 8.89301 1.17761C9.1761 1.29488 9.43333 1.46675 9.65 1.68342C9.86667 1.90009 10.0385 2.15731 10.1558 2.44041C10.2731 2.7235 10.3334 3.02692 10.3334 3.33333H13.6667C13.8436 3.33333 14.0131 3.40357 14.1382 3.5286C14.2632 3.65362 14.3334 3.82319 14.3334 4ZM9.50008 6.16667C9.37926 6.16667 9.26252 6.21043 9.17146 6.28984C9.0804 6.36926 9.02118 6.47896 9.00475 6.59867L9.00008 6.66667V11.3333L9.00475 11.4013C9.02121 11.521 9.08045 11.6307 9.17151 11.7101C9.26256 11.7894 9.37928 11.8332 9.50008 11.8332C9.62088 11.8332 9.7376 11.7894 9.82866 11.7101C9.91971 11.6307 9.97895 11.521 9.99541 11.4013L10.0001 11.3333V6.66667L9.99541 6.59867C9.97898 6.47896 9.91976 6.36926 9.8287 6.28984C9.73764 6.21043 9.62091 6.16667 9.50008 6.16667ZM6.50008 6.16667C6.37926 6.16667 6.26252 6.21043 6.17146 6.28984C6.0804 6.36926 6.02118 6.47896 6.00475 6.59867L6.00008 6.66667V11.3333L6.00475 11.4013C6.02121 11.521 6.08045 11.6307 6.17151 11.7101C6.26256 11.7894 6.37928 11.8332 6.50008 11.8332C6.62088 11.8332 6.7376 11.7894 6.82866 11.7101C6.91971 11.6307 6.97895 11.521 6.99541 11.4013L7.00008 11.3333V6.66667L6.99541 6.59867C6.97898 6.47896 6.91976 6.36926 6.8287 6.28984C6.73764 6.21043 6.62091 6.16667 6.50008 6.16667ZM8.00008 2.33333C7.73486 2.33333 7.48051 2.43869 7.29297 2.62623C7.10544 2.81376 7.00008 3.06812 7.00008 3.33333H9.00008C9.00008 3.06812 8.89472 2.81376 8.70719 2.62623C8.51965 2.43869 8.2653 2.33333 8.00008 2.33333Z" fill="#CE1616"/>
</svg>
