<svg width="58" height="49" viewBox="0 0 58 49" fill="none" xmlns="http://www.w3.org/2000/svg">
<path fill-rule="evenodd" clip-rule="evenodd" d="M55.8228 0H33.0802L31.6329 0.620254L28.9451 3.26667L26.2574 0.620254L24.8101 0H2.06751L0 2.06751V43.4177L2.06751 45.4852H23.9418L27.4979 49H30.3924L33.9485 45.4852H55.8228L57.8903 43.4177V2.06751L55.8228 0ZM26.8776 42.6734L26.1333 41.9705L24.8101 41.3502H4.13502V4.13502H23.9418L27.0017 7.19494L26.8776 42.6734ZM53.7553 41.3502H33.0802L31.6329 41.9705L31.054 42.508V7.02954L33.9485 4.13502H53.7553V41.3502ZM20.6751 12.4051H8.27004V16.5401H20.6751V12.4051ZM20.6751 28.9451H8.27004V33.0802H20.6751V28.9451ZM8.27004 20.6751H20.6751V24.8101H8.27004V20.6751ZM49.6202 12.4051H37.2152V16.5401H49.6202V12.4051ZM37.2152 20.6751H49.6202V24.8101H37.2152V20.6751ZM37.2152 28.9451H49.6202V33.0802H37.2152V28.9451Z" fill="url(#paint0_linear_62_1207)"/>
<defs>
<linearGradient id="paint0_linear_62_1207" x1="51.3594" y1="8.95629" x2="52.4319" y2="43.8057" gradientUnits="userSpaceOnUse">
<stop stop-color="#162ECE"/>
<stop offset="1" stop-color="#C8CDEB"/>
</linearGradient>
</defs>
</svg>
