<svg width="56" height="54" viewBox="0 0 56 54" fill="none" xmlns="http://www.w3.org/2000/svg">
<path d="M54.7579 9.22375C54.758 9.22375 54.7581 9.22356 54.758 9.2235L37.0817 1.0633C36.9313 0.993875 36.7467 0.993875 36.5968 1.0633L19.5373 8.93562C19.2993 9.04544 19.0251 9.04544 18.7871 8.93562L1.72756 1.0633C1.57766 0.994241 1.39257 0.993875 1.24267 1.0633C1.09278 1.13235 1.00046 1.26023 1 1.39833V43.7944C1.00046 43.9329 1.09277 44.0604 1.24267 44.1298L18.9323 52.2903C19.0822 52.3597 19.2673 52.3597 19.4172 52.2903L36.4626 44.4181C36.7007 44.3082 36.975 44.3082 37.213 44.418L54.2724 52.2903C54.4223 52.3593 54.6074 52.3597 54.7573 52.2903C54.9072 52.2212 54.9995 52.0933 55 51.9552V9.55915C54.9995 9.42084 54.9074 9.29346 54.7579 9.224C54.7577 9.22394 54.7578 9.22375 54.7579 9.22375ZM18.6783 49.8945C18.6783 50.548 18.0009 50.9813 17.4077 50.7071L2.49109 43.8139C2.17427 43.6675 1.97143 43.3503 1.97143 43.0013V3.45687C1.97143 2.80359 2.64856 2.37034 3.24171 2.64408L18.1583 9.5282C18.4753 9.67451 18.6783 9.99181 18.6783 10.341V49.8945ZM36.3678 43.0108C36.368 43.3602 36.1648 43.6777 35.8475 43.824L20.9183 50.7087C20.3251 50.9822 19.6482 50.5489 19.6482 49.8958V10.3509C19.6482 10.0019 19.8511 9.68467 20.1679 9.53826L35.0849 2.64485C35.678 2.37077 36.3554 2.80382 36.3556 3.45717L36.3678 43.0108ZM54.032 49.8945C54.032 50.548 53.3545 50.9813 52.7613 50.7071L37.8447 43.8139C37.5279 43.6675 37.325 43.3503 37.325 43.0013V3.45687C37.325 2.80359 38.0022 2.37034 38.5953 2.64408L53.5119 9.5282C53.8289 9.67451 54.032 9.99181 54.032 10.341V49.8945Z" fill="#C8CDEB" stroke="#C8CDEB" stroke-width="1.79034"/>
<path d="M15.9722 13.5414C15.9722 13.1922 15.7692 12.8749 15.4521 12.7286L5.52774 8.14912C4.93458 7.87542 4.25751 8.30867 4.25751 8.96193V16.3501C4.25751 16.6993 4.46056 17.0166 4.77762 17.1629L14.702 21.7424C15.2952 22.0161 15.9722 21.5828 15.9722 20.9296V13.5414Z" fill="url(#paint0_linear_62_1141)"/>
<path d="M14.3562 30.423L5.89484 26.4047C5.69849 26.3116 5.46192 26.3918 5.36583 26.5835C5.26977 26.7754 5.35081 27.0064 5.54716 27.0995L14.0086 31.1178C14.2049 31.2109 14.4418 31.1307 14.5376 30.9391C14.6336 30.7471 14.5526 30.5161 14.3562 30.423Z" fill="#162ECE" stroke="#162ECE" stroke-width="1.79034"/>
<path d="M14.3563 36.6894L5.89485 32.6708C5.69851 32.5777 5.46193 32.6579 5.36587 32.8499C5.26979 33.0415 5.35082 33.2725 5.54718 33.3656L14.0086 37.3839C14.2049 37.477 14.4419 37.3971 14.5376 37.2051C14.6337 37.0135 14.5526 36.7825 14.3563 36.6894L14.3563 36.6894Z" fill="#162ECE" stroke="#162ECE" stroke-width="1.79034"/>
<path d="M23.3765 31.5512C23.4546 31.5512 23.5315 31.5329 23.5991 31.4989L32.9206 26.8164V26.816C33.1369 26.7075 33.2113 26.4671 33.0865 26.2793C32.9618 26.0912 32.6854 26.0268 32.4691 26.135L23.1598 30.823C22.9817 30.9122 22.8952 31.0941 22.949 31.2666C23.0027 31.4386 23.1833 31.5578 23.3883 31.5563L23.3765 31.5512Z" fill="#162ECE" stroke="#162ECE" stroke-width="1.79034"/>
<path d="M23.3765 37.4958C23.4546 37.4958 23.5315 37.4779 23.5991 37.4435L32.9206 32.761C33.1369 32.6525 33.2113 32.4121 33.0865 32.2239C32.9618 32.0362 32.6854 31.9715 32.4691 32.08L23.1598 36.7625C22.9817 36.8516 22.8952 37.0336 22.949 37.206C23.0027 37.3781 23.1833 37.4972 23.3883 37.4958H23.3765Z" fill="#162ECE" stroke="#162ECE" stroke-width="1.79034"/>
<path d="M23.3765 17.0442C23.4546 17.0442 23.5315 17.0259 23.5991 16.9919L32.9206 12.3095V12.3091C33.1369 12.2006 33.2113 11.9605 33.0865 11.7724C32.9618 11.5842 32.6854 11.5199 32.4691 11.6284L23.1598 16.3109C22.9817 16.4 22.8952 16.582 22.949 16.7545C23.0027 16.9265 23.1833 17.0457 23.3883 17.0442H23.3765Z" fill="#162ECE" stroke="#162ECE" stroke-width="1.79034"/>
<path d="M50.0303 36.8495L41.0753 32.4817C40.8679 32.3805 40.6093 32.454 40.498 32.6462C40.3868 32.8384 40.4652 33.0762 40.6726 33.1774L49.6388 37.5448C49.8466 37.6461 50.1051 37.5722 50.216 37.3803C50.3272 37.1881 50.2492 36.9503 50.0414 36.8491L50.0303 36.8495Z" fill="#162ECE" stroke="#162ECE" stroke-width="1.79034"/>
<path d="M51.6862 13.6773C51.6862 13.3281 51.4831 13.0107 51.1659 12.8644L40.9397 8.14823C40.3465 7.87469 39.6696 8.30795 39.6696 8.96112V26.0051C39.6696 26.3542 39.8726 26.6715 40.1896 26.8178L50.4158 31.5384C51.009 31.8122 51.6862 31.3789 51.6862 30.7256V13.6773Z" fill="url(#paint1_linear_62_1141)"/>
<defs>
<linearGradient id="paint0_linear_62_1141" x1="10.0132" y1="21.0102" x2="9.39819" y2="7.59117" gradientUnits="userSpaceOnUse">
<stop stop-color="#162ECE"/>
<stop offset="1" stop-color="#C8CDEB"/>
</linearGradient>
<linearGradient id="paint1_linear_62_1141" x1="45.5736" y1="29.9317" x2="43.9202" y2="7.68539" gradientUnits="userSpaceOnUse">
<stop stop-color="#162ECE"/>
<stop offset="1" stop-color="#C8CDEB"/>
</linearGradient>
</defs>
</svg>
