<svg width="46" height="51" viewBox="0 0 46 51" fill="none" xmlns="http://www.w3.org/2000/svg">
<path d="M5.08134 2.99477L3.72632 6.23715H25.5761L11.3967 0.357311C8.92864 -0.63476 6.09761 0.502493 5.08134 2.99477V2.99477ZM14.0342 50.1786L42.9494 38.177C43.8292 37.8236 44.5865 37.2208 45.1281 36.4427C45.6698 35.6645 45.9722 34.7451 45.9982 33.7974C45.9982 33.1682 45.8772 32.5149 45.6111 31.8858L38.231 14.0527C37.4809 12.238 35.6904 11.1249 33.8998 11.0765C33.2707 11.0523 32.569 11.1733 31.9399 11.3911L3.02461 23.4895C2.13905 23.8315 1.37695 24.4322 0.837493 25.2133C0.298038 25.9944 0.00621312 26.9199 0 27.8691C0 28.4983 0.145181 29.1274 0.362953 29.7323L7.74299 47.5412C8.22777 48.725 9.16281 49.6678 10.3425 50.1624C11.5223 50.657 12.8501 50.6628 14.0342 50.1786V50.1786ZM4.83937 11.1007C3.55589 11.1007 2.32498 11.6106 1.41742 12.5181C0.509861 13.4257 0 14.6566 0 15.9401L0 19.4486L20.1802 11.1007" fill="url(#paint0_linear_62_1203)"/>
<path d="M9.83264 30.3428L32.4967 20.7542" stroke="white" stroke-width="2.68163" stroke-linecap="round"/>
<path d="M13.4081 37.4937L36.0721 27.9049" stroke="white" stroke-width="2.68163" stroke-linecap="round"/>
<defs>
<linearGradient id="paint0_linear_62_1203" x1="31.2856" y1="41.1183" x2="15.6428" y2="10.2796" gradientUnits="userSpaceOnUse">
<stop stop-color="#162ECE"/>
<stop offset="1" stop-color="#C8CDEB"/>
</linearGradient>
</defs>
</svg>
