<svg width="39" height="57" viewBox="0 0 39 57" fill="none" xmlns="http://www.w3.org/2000/svg">
<path fill-rule="evenodd" clip-rule="evenodd" d="M5.55991 2.77995C4.82262 2.77995 4.11553 3.07284 3.59418 3.59418C3.07284 4.11553 2.77995 4.82262 2.77995 5.55991V44.4793C2.77995 45.2166 3.07284 45.9236 3.59418 46.445C4.11553 46.9663 4.82262 47.2592 5.55991 47.2592H20.8497V50.0392H5.55991C4.08533 50.0392 2.67114 49.4534 1.62846 48.4107C0.585774 47.368 0 45.9538 0 44.4793V5.55991C0 4.08533 0.585774 2.67114 1.62846 1.62846C2.67114 0.585774 4.08533 0 5.55991 0H33.3595C34.834 0 36.2482 0.585774 37.2909 1.62846C38.3336 2.67114 38.9194 4.08533 38.9194 5.55991V44.4793C38.9194 45.9538 38.3336 47.368 37.2909 48.4107C36.2482 49.4534 34.834 50.0392 33.3595 50.0392H29.1895V47.2592H33.3595C34.0967 47.2592 34.8038 46.9663 35.3252 46.445C35.8465 45.9236 36.1394 45.2166 36.1394 44.4793V5.55991C36.1394 4.82262 35.8465 4.11553 35.3252 3.59418C34.8038 3.07284 34.0967 2.77995 33.3595 2.77995H5.55991Z" fill="#D1D6F4"/>
<path fill-rule="evenodd" clip-rule="evenodd" d="M11.1198 9.72982C11.1198 9.36118 11.2663 9.00763 11.5269 8.74696C11.7876 8.48629 12.1411 8.33984 12.5098 8.33984H26.4096C26.7782 8.33984 27.1318 8.48629 27.3924 8.74696C27.6531 9.00763 27.7995 9.36118 27.7995 9.72982C27.7995 10.0985 27.6531 10.452 27.3924 10.7127C27.1318 10.9734 26.7782 11.1198 26.4096 11.1198H12.5098C12.1411 11.1198 11.7876 10.9734 11.5269 10.7127C11.2663 10.452 11.1198 10.0985 11.1198 9.72982Z" fill="#162ECE"/>
<path fill-rule="evenodd" clip-rule="evenodd" d="M5.55991 18.0692C5.55991 17.7005 5.70635 17.347 5.96702 17.0863C6.22769 16.8256 6.58124 16.6792 6.94988 16.6792H31.9695C32.3381 16.6792 32.6917 16.8256 32.9523 17.0863C33.213 17.347 33.3595 17.7005 33.3595 18.0692C33.3595 18.4378 33.213 18.7914 32.9523 19.052C32.6917 19.3127 32.3381 19.4592 31.9695 19.4592H6.94988C6.58124 19.4592 6.22769 19.3127 5.96702 19.052C5.70635 18.7914 5.55991 18.4378 5.55991 18.0692Z" fill="#162ECE"/>
<path fill-rule="evenodd" clip-rule="evenodd" d="M5.55991 23.6302C5.55991 23.2616 5.70635 22.908 5.96702 22.6473C6.22769 22.3867 6.58124 22.2402 6.94988 22.2402H31.9695C32.3381 22.2402 32.6917 22.3867 32.9523 22.6473C33.213 22.908 33.3595 23.2616 33.3595 23.6302C33.3595 23.9989 33.213 24.3524 32.9523 24.6131C32.6917 24.8737 32.3381 25.0202 31.9695 25.0202H6.94988C6.58124 25.0202 6.22769 24.8737 5.96702 24.6131C5.70635 24.3524 5.55991 23.9989 5.55991 23.6302Z" fill="#162ECE"/>
<mask id="path-5-outside-1_62_1151" maskUnits="userSpaceOnUse" x="17.4597" y="29.7485" width="15" height="27" fill="black">
<rect fill="white" x="17.4597" y="29.7485" width="15" height="27"/>
<path fill-rule="evenodd" clip-rule="evenodd" d="M25.7259 39.2563C25.3856 39.4161 25.0112 39.5011 24.6281 39.5011C24.356 39.5011 24.0884 39.4582 23.8342 39.3762V35.625H22.39C22.502 35.431 22.6396 35.2508 22.8008 35.0896C23.2854 34.605 23.9427 34.3327 24.6281 34.3327C25.3134 34.3327 25.9707 34.605 26.4554 35.0896C26.6165 35.2508 26.7541 35.431 26.8661 35.625H25.7259V39.2563ZM25.7259 41.9674C25.3679 42.0452 25.0001 42.0853 24.6281 42.0853C24.3606 42.0853 24.0952 42.0646 23.8342 42.024V46.0744L24.7801 45.168L25.7259 46.0744V41.9674ZM21.9425 41.3329C21.5931 41.1204 21.2674 40.8655 20.9734 40.5715C20.0042 39.6023 19.4597 38.2877 19.4597 36.9169C19.4597 35.5462 20.0042 34.2316 20.9734 33.2623C21.9427 32.2931 23.2573 31.7485 24.6281 31.7485C25.9988 31.7485 27.3134 32.2931 28.2827 33.2623C29.2519 34.2316 29.7965 35.5462 29.7965 36.9169C29.7965 38.2877 29.2519 39.6023 28.2827 40.5715C28.0758 40.7784 27.8532 40.966 27.6176 41.133V51.9409L24.7801 49.2216L21.9425 51.9409V41.3329Z"/>
</mask>
<path fill-rule="evenodd" clip-rule="evenodd" d="M25.7259 39.2563C25.3856 39.4161 25.0112 39.5011 24.6281 39.5011C24.356 39.5011 24.0884 39.4582 23.8342 39.3762V35.625H22.39C22.502 35.431 22.6396 35.2508 22.8008 35.0896C23.2854 34.605 23.9427 34.3327 24.6281 34.3327C25.3134 34.3327 25.9707 34.605 26.4554 35.0896C26.6165 35.2508 26.7541 35.431 26.8661 35.625H25.7259V39.2563ZM25.7259 41.9674C25.3679 42.0452 25.0001 42.0853 24.6281 42.0853C24.3606 42.0853 24.0952 42.0646 23.8342 42.024V46.0744L24.7801 45.168L25.7259 46.0744V41.9674ZM21.9425 41.3329C21.5931 41.1204 21.2674 40.8655 20.9734 40.5715C20.0042 39.6023 19.4597 38.2877 19.4597 36.9169C19.4597 35.5462 20.0042 34.2316 20.9734 33.2623C21.9427 32.2931 23.2573 31.7485 24.6281 31.7485C25.9988 31.7485 27.3134 32.2931 28.2827 33.2623C29.2519 34.2316 29.7965 35.5462 29.7965 36.9169C29.7965 38.2877 29.2519 39.6023 28.2827 40.5715C28.0758 40.7784 27.8532 40.966 27.6176 41.133V51.9409L24.7801 49.2216L21.9425 51.9409V41.3329Z" fill="url(#paint0_linear_62_1151)"/>
<path d="M25.7259 39.2563L26.4788 40.8608L27.4982 40.3824V39.2563H25.7259ZM23.8342 39.3762H22.0619V40.6664L23.2897 41.0628L23.8342 39.3762ZM23.8342 35.625H25.6065V33.8527H23.8342V35.625ZM22.39 35.625L20.8551 34.7389L19.3206 37.3973H22.39V35.625ZM26.4554 35.0896L27.7086 33.8364L27.7086 33.8364L26.4554 35.0896ZM26.8661 35.625V37.3973H29.9355L28.4011 34.7389L26.8661 35.625ZM25.7259 35.625V33.8527H23.9536V35.625H25.7259ZM25.7259 41.9674H27.4982V39.7684L25.3494 40.2356L25.7259 41.9674ZM23.8342 42.024L24.1064 40.2727L22.0619 39.955L22.0619 42.024H23.8342ZM23.8342 46.0744H22.0619V50.2276L25.0605 47.354L23.8342 46.0744ZM24.7801 45.168L26.0063 43.8884L24.7801 42.7132L23.5538 43.8884L24.7801 45.168ZM25.7259 46.0744L24.4996 47.354L27.4982 50.2276V46.0744H25.7259ZM20.9734 40.5715L19.7202 41.8248L19.7202 41.8248L20.9734 40.5715ZM21.9425 41.3329H23.7148V40.3363L22.8634 39.8186L21.9425 41.3329ZM28.2827 33.2623L27.0295 34.5155L28.2827 33.2623ZM27.6176 41.133L26.5925 39.6873L25.8453 40.2171V41.133H27.6176ZM27.6176 51.9409L26.3913 53.2205L29.3899 56.0941V51.9409H27.6176ZM24.7801 49.2216L26.0063 47.942L24.7801 46.7668L23.5538 47.942L24.7801 49.2216ZM21.9425 51.9409H20.1702V56.0941L23.1688 53.2205L21.9425 51.9409ZM24.6281 41.2734C25.274 41.2734 25.9052 41.13 26.4788 40.8608L24.973 37.6519C24.866 37.7021 24.7484 37.7288 24.6281 37.7288V41.2734ZM23.2897 41.0628C23.7182 41.2011 24.1695 41.2734 24.6281 41.2734V37.7288C24.5425 37.7288 24.4585 37.7154 24.3787 37.6896L23.2897 41.0628ZM25.6065 39.3762V35.625H22.0619V39.3762H25.6065ZM23.8342 33.8527H22.39V37.3973H23.8342V33.8527ZM21.5475 33.8364C21.276 34.108 21.0439 34.4119 20.8551 34.7389L23.9249 36.511C23.9601 36.4501 24.0033 36.3935 24.054 36.3428L21.5475 33.8364ZM24.6281 32.5604C23.4726 32.5604 22.3645 33.0194 21.5475 33.8364L24.054 36.3428C24.2062 36.1906 24.4127 36.105 24.6281 36.105V32.5604ZM27.7086 33.8364C26.8916 33.0194 25.7835 32.5604 24.6281 32.5604V36.105C24.8434 36.105 25.0499 36.1906 25.2021 36.3428L27.7086 33.8364ZM28.4011 34.7389C28.2123 34.4119 27.9801 34.108 27.7086 33.8364L25.2021 36.3428C25.2528 36.3935 25.296 36.4501 25.3312 36.511L28.4011 34.7389ZM26.8661 33.8527H25.7259V37.3973H26.8661V33.8527ZM23.9536 35.625V39.2563H27.4982V35.625H23.9536ZM24.6281 43.8576C25.1275 43.8576 25.6216 43.8038 26.1024 43.6993L25.3494 40.2356C25.1143 40.2867 24.8726 40.313 24.6281 40.313V43.8576ZM23.562 43.7753C23.9126 43.8298 24.269 43.8576 24.6281 43.8576V40.313C24.4522 40.313 24.2779 40.2994 24.1064 40.2727L23.562 43.7753ZM25.6065 46.0744V42.024H22.0619V46.0744H25.6065ZM23.5538 43.8884L22.6079 44.7948L25.0605 47.354L26.0063 46.4476L23.5538 43.8884ZM26.9522 44.7948L26.0063 43.8884L23.5538 46.4476L24.4996 47.354L26.9522 44.7948ZM23.9536 41.9674V46.0744H27.4982V41.9674H23.9536ZM19.7202 41.8248C20.1149 42.2194 20.5523 42.5618 21.0216 42.8471L22.8634 39.8186C22.6338 39.679 22.4199 39.5116 22.2267 39.3183L19.7202 41.8248ZM17.6873 36.9169C17.6873 38.7577 18.4186 40.5231 19.7202 41.8248L22.2267 39.3183C21.5898 38.6814 21.232 37.8176 21.232 36.9169H17.6873ZM19.7202 32.0091C18.4186 33.3107 17.6873 35.0761 17.6873 36.9169H21.232C21.232 36.0162 21.5898 35.1524 22.2267 34.5155L19.7202 32.0091ZM24.6281 29.9762C22.7873 29.9762 21.0219 30.7075 19.7202 32.0091L22.2267 34.5155C22.8635 33.8786 23.7274 33.5208 24.6281 33.5208V29.9762ZM29.5359 32.0091C28.2342 30.7075 26.4688 29.9762 24.6281 29.9762V33.5208C25.5288 33.5208 26.3926 33.8786 27.0295 34.5155L29.5359 32.0091ZM31.5688 36.9169C31.5688 35.0761 30.8375 33.3107 29.5359 32.0091L27.0295 34.5155C27.6663 35.1524 28.0241 36.0162 28.0241 36.9169H31.5688ZM29.5359 41.8248C30.8375 40.5231 31.5688 38.7577 31.5688 36.9169H28.0241C28.0241 37.8176 27.6663 38.6814 27.0295 39.3183L29.5359 41.8248ZM28.6428 42.5787C28.9591 42.3544 29.2581 42.1025 29.5359 41.8248L27.0295 39.3183C26.8934 39.4544 26.7472 39.5776 26.5925 39.6873L28.6428 42.5787ZM29.3899 51.9409V41.133H25.8453V51.9409H29.3899ZM23.5538 50.5012L26.3913 53.2205L28.8439 50.6613L26.0063 47.942L23.5538 50.5012ZM23.1688 53.2205L26.0063 50.5012L23.5538 47.942L20.7162 50.6613L23.1688 53.2205ZM20.1702 41.3329V51.9409H23.7148V41.3329H20.1702Z" fill="url(#paint1_linear_62_1151)" mask="url(#path-5-outside-1_62_1151)"/>
<defs>
<linearGradient id="paint0_linear_62_1151" x1="24.5383" y1="50.1381" x2="23.2387" y2="31.8408" gradientUnits="userSpaceOnUse">
<stop stop-color="#162ECE"/>
<stop offset="1" stop-color="#C8CDEB"/>
</linearGradient>
<linearGradient id="paint1_linear_62_1151" x1="24.5383" y1="50.1381" x2="23.2387" y2="31.8408" gradientUnits="userSpaceOnUse">
<stop stop-color="#162ECE"/>
<stop offset="1" stop-color="#C8CDEB"/>
</linearGradient>
</defs>
</svg>
