<svg width="44" height="49" viewBox="0 0 44 49" fill="none" xmlns="http://www.w3.org/2000/svg">
<path d="M9.77777 22.0005H14.6667V26.8894H9.77777V22.0005ZM9.77777 31.7783H14.6667V36.6672H9.77777V31.7783ZM19.5555 22.0005H24.4444V26.8894H19.5555V22.0005ZM19.5555 31.7783H24.4444V36.6672H19.5555V31.7783ZM29.3333 22.0005H34.2222V26.8894H29.3333V22.0005ZM29.3333 31.7783H34.2222V36.6672H29.3333V31.7783Z" fill="#162ECE"/>
<path d="M4.88889 48.8889H39.1111C41.8073 48.8889 44 46.6962 44 44V9.77778C44 7.08156 41.8073 4.88889 39.1111 4.88889H34.2222V0H29.3333V4.88889H14.6667V0H9.77778V4.88889H4.88889C2.19267 4.88889 0 7.08156 0 9.77778V44C0 46.6962 2.19267 48.8889 4.88889 48.8889ZM39.1111 14.6667L39.1136 44H4.88889V14.6667H39.1111Z" fill="url(#paint0_linear_62_1160)"/>
<defs>
<linearGradient id="paint0_linear_62_1160" x1="39.0361" y1="8.93598" x2="40.4399" y2="43.6825" gradientUnits="userSpaceOnUse">
<stop stop-color="#162ECE"/>
<stop offset="1" stop-color="#C8CDEB"/>
</linearGradient>
</defs>
</svg>
