<svg width="52" height="57" viewBox="0 0 52 57" fill="none" xmlns="http://www.w3.org/2000/svg">
<path d="M5.68462 3.3503L4.16872 6.97762H28.6126L12.7498 0.399712C9.98868 -0.710144 6.82154 0.562126 5.68462 3.3503ZM15.7004 56.136L48.0485 42.7095C49.0327 42.3141 49.8799 41.6397 50.4859 40.7692C51.0919 39.8988 51.4302 38.8701 51.4593 37.8099C51.4593 37.1061 51.324 36.3752 51.0262 35.6714L42.77 15.7211C41.9308 13.6909 39.9277 12.4457 37.9245 12.3915C37.2207 12.3645 36.4357 12.4998 35.7319 12.7434L3.3837 26.2782C2.39301 26.6609 1.54042 27.3328 0.936924 28.2067C0.333423 29.0806 0.00695076 30.1159 0 31.1778C0 31.8817 0.162418 32.5855 0.406044 33.2622L8.66227 53.1854C9.2046 54.5098 10.2507 55.5645 11.5705 56.1178C12.8902 56.6711 14.3758 56.6777 15.7004 56.136ZM5.41392 12.4186C3.97806 12.4186 2.60101 12.989 1.5857 14.0043C0.570393 15.0196 0 16.3967 0 17.8325L0 21.7576L22.576 12.4186" fill="url(#paint0_linear_62_1197)"/>
<path d="M20.422 34.916C19.2927 34.916 18.3687 34.5347 17.65 33.772C16.946 32.9947 16.594 31.9607 16.594 30.67C16.594 29.3793 16.946 28.3527 17.65 27.59C18.3687 26.8127 19.2927 26.424 20.422 26.424C21.5513 26.424 22.468 26.8127 23.172 27.59C23.876 28.3527 24.228 29.3793 24.228 30.67C24.228 31.9607 23.876 32.9947 23.172 33.772C22.468 34.5347 21.5513 34.916 20.422 34.916ZM29.596 26.6H32.214L21.698 42H19.08L29.596 26.6ZM20.422 33.112C20.9207 33.112 21.3093 32.9067 21.588 32.496C21.8813 32.0853 22.028 31.4767 22.028 30.67C22.028 29.8633 21.8813 29.2547 21.588 28.844C21.3093 28.4333 20.9207 28.228 20.422 28.228C19.938 28.228 19.5493 28.4407 19.256 28.866C18.9627 29.2767 18.816 29.878 18.816 30.67C18.816 31.462 18.9627 32.0707 19.256 32.496C19.5493 32.9067 19.938 33.112 20.422 33.112ZM30.872 42.176C30.1387 42.176 29.4787 42.0073 28.892 41.67C28.32 41.318 27.8727 40.8193 27.55 40.174C27.2273 39.5287 27.066 38.7807 27.066 37.93C27.066 37.0793 27.2273 36.3313 27.55 35.686C27.8727 35.0407 28.32 34.5493 28.892 34.212C29.4787 33.86 30.1387 33.684 30.872 33.684C32.0013 33.684 32.918 34.0727 33.622 34.85C34.3407 35.6127 34.7 36.6393 34.7 37.93C34.7 39.2207 34.3407 40.2547 33.622 41.032C32.918 41.7947 32.0013 42.176 30.872 42.176ZM30.872 40.372C31.3707 40.372 31.7593 40.1667 32.038 39.756C32.3313 39.3307 32.478 38.722 32.478 37.93C32.478 37.138 32.3313 36.5367 32.038 36.126C31.7593 35.7007 31.3707 35.488 30.872 35.488C30.388 35.488 29.9993 35.6933 29.706 36.104C29.4127 36.5147 29.266 37.1233 29.266 37.93C29.266 38.7367 29.4127 39.3453 29.706 39.756C29.9993 40.1667 30.388 40.372 30.872 40.372Z" fill="#FEFEFE"/>
<defs>
<linearGradient id="paint0_linear_62_1197" x1="26" y1="47" x2="12.0225" y2="17.4626" gradientUnits="userSpaceOnUse">
<stop stop-color="#162ECE"/>
<stop offset="1" stop-color="#C8CDEB"/>
</linearGradient>
</defs>
</svg>
