<svg width="57" height="49" viewBox="0 0 57 49" fill="none" xmlns="http://www.w3.org/2000/svg">
<path d="M2.85002 47.9502L2.84538 47.9503C2.53781 47.9531 2.23278 47.8944 1.94827 47.7775C1.66377 47.6606 1.40554 47.488 1.18881 47.2697L0.834019 47.622L1.18881 47.2697C0.972084 47.0515 0.801243 46.792 0.686358 46.5067C0.571473 46.2214 0.514869 45.9159 0.519884 45.6084L0.528169 45.1003H0.5V5.70003C0.5 4.3209 1.04786 2.99825 2.02305 2.02305C2.99825 1.04786 4.3209 0.5 5.70003 0.5H22.7999C23.3247 0.500553 23.8342 0.676765 24.2473 1.00055L24.2476 1.00085L30.7571 6.09382L30.8928 6.20003H31.0652H45.6003C46.9794 6.20003 48.302 6.74789 49.2772 7.72309C50.2524 8.69828 50.8003 10.0209 50.8003 11.4001V22.8001V23.3001H51.3003H54.1503C54.5391 23.3002 54.9219 23.3967 55.2643 23.5811C55.6067 23.7655 55.898 24.032 56.112 24.3567C56.326 24.6813 56.4562 25.0541 56.4907 25.4414C56.5253 25.8288 56.4631 26.2186 56.3099 26.576L56.3099 26.5761L47.7599 46.5262C47.7599 46.5262 47.7599 46.5262 47.7598 46.5262C47.5787 46.9488 47.2775 47.309 46.8936 47.5621C46.5097 47.8153 46.06 47.9502 45.6003 47.9503L2.85002 47.9502ZM13.2811 28.0002H12.9514L12.8215 28.3032L6.71392 42.5533L6.4152 43.2502H7.17349H43.7221H44.0518L44.1817 42.9472L50.2892 28.6971L50.588 28.0002H49.8297H13.2811ZM5.70003 10.9001H5.20003V11.4001V31.7207L6.15965 31.9175L9.24045 24.7242C9.42163 24.3016 9.72281 23.9414 10.1067 23.6883C10.4906 23.4351 10.9403 23.3002 11.4001 23.3001C11.4001 23.3001 11.4001 23.3001 11.4001 23.3001H45.6003H46.1003V22.8001V11.4001V10.9001H45.6003H5.70003Z" fill="url(#paint0_linear_62_1175)" stroke="white"/>
<defs>
<linearGradient id="paint0_linear_62_1175" x1="50.5695" y1="8.85583" x2="51.6345" y2="43.314" gradientUnits="userSpaceOnUse">
<stop stop-color="#162ECE"/>
<stop offset="1" stop-color="#C8CDEB"/>
</linearGradient>
</defs>
</svg>
