<svg width="53" height="42" viewBox="0 0 53 42" fill="none" xmlns="http://www.w3.org/2000/svg">
<path d="M8.53125 1.83099e-08H43.9688C46.1479 -0.00014266 48.2444 0.833579 49.8284 2.33014C51.4123 3.8267 52.3635 5.87263 52.4869 8.04825L52.5 8.53125V33.4688C52.5001 35.6479 51.6664 37.7444 50.1699 39.3284C48.6733 40.9123 46.6274 41.8635 44.4518 41.9869L43.9688 42H8.53125C6.35214 42.0001 4.25558 41.1664 2.67164 39.6699C1.08771 38.1733 0.136497 36.1274 0.0131253 33.9518L1.83099e-08 33.4688V8.53125C-0.00014266 6.35214 0.83358 4.25558 2.33014 2.67164C3.8267 1.08771 5.87263 0.136497 8.04825 0.0131253L8.53125 1.83099e-08H43.9688H8.53125ZM48.5625 14.1041L27.1688 25.3654C26.9272 25.493 26.6617 25.5689 26.3892 25.5884C26.1167 25.6078 25.8431 25.5703 25.5859 25.4783L25.3339 25.368L3.9375 14.1067V33.4688C3.93754 34.6216 4.37107 35.7323 5.15203 36.5804C5.933 37.4285 7.00429 37.9519 8.15325 38.0467L8.53125 38.0625H43.9688C45.122 38.0624 46.2331 37.6285 47.0812 36.847C47.9294 36.0655 48.4525 34.9936 48.5467 33.8441L48.5625 33.4688V14.1041ZM43.9688 3.9375H8.53125C7.37838 3.93754 6.26767 4.37107 5.4196 5.15203C4.57153 5.933 4.04812 7.00429 3.95325 8.15325L3.9375 8.53125V9.65737L26.25 21.399L48.5625 9.65475V8.53125C48.5624 7.37796 48.1285 6.2669 47.347 5.41877C46.5655 4.57063 45.4936 4.04749 44.3441 3.95325L43.9688 3.9375Z" fill="url(#paint0_linear_62_1187)"/>
<defs>
<linearGradient id="paint0_linear_62_1187" x1="46.5772" y1="7.67682" x2="47.4462" y2="37.5507" gradientUnits="userSpaceOnUse">
<stop stop-color="#162ECE"/>
<stop offset="1" stop-color="#C8CDEB"/>
</linearGradient>
</defs>
</svg>
