<svg width="36" height="48" viewBox="0 0 36 48" fill="none" xmlns="http://www.w3.org/2000/svg">
<path d="M35.5715 44.8205C35.5619 46.5767 33.9992 47.9913 32.1085 47.981L4.37115 47.8292C2.46832 47.8187 0.933412 46.3871 0.943027 44.6309L1.07512 3.1872L8.00081 3.22511L8.01826 0.0377675L11.4811 0.0567244L11.4637 3.24407L16.6579 3.2725L16.6754 0.0851597L20.1382 0.104117L20.1208 3.29146L25.315 3.3199L25.3325 0.132552L28.7953 0.151509L28.7779 3.33885L35.7036 3.37677L35.5715 44.8205ZM32.2058 9.7325L32.2233 6.54515L4.52052 6.3935L4.50307 9.58084L32.2058 9.7325ZM32.1087 44.7936L32.1884 12.9198L4.48562 12.7682L4.40591 44.6419L32.1087 44.7936Z" fill="url(#paint0_linear_62_1209)"/>
<line x1="8.80461" y1="21.9366" x2="27.7898" y2="21.9366" stroke="#162ECE" stroke-width="2.27822" stroke-linecap="round"/>
<line x1="8.80461" y1="27.252" x2="27.7898" y2="27.252" stroke="#162ECE" stroke-width="2.27822" stroke-linecap="round"/>
<defs>
<linearGradient id="paint0_linear_62_1209" x1="17.9737" y1="11.1428" x2="18.8332" y2="43.6915" gradientUnits="userSpaceOnUse">
<stop stop-color="#162ECE"/>
<stop offset="1" stop-color="#C8CDEB"/>
</linearGradient>
</defs>
</svg>
