<svg width="47" height="52" viewBox="0 0 47 52" fill="none" xmlns="http://www.w3.org/2000/svg">
<path d="M5.18189 3.05403L3.80005 6.36056H26.0822L11.6222 0.36438C9.10531 -0.64732 6.21826 0.512436 5.18189 3.05403ZM14.3119 51.1715L43.7993 38.9324C44.6964 38.572 45.4687 37.9573 46.0211 37.1638C46.5735 36.3702 46.8819 35.4326 46.9084 34.4661C46.9084 33.8246 46.785 33.1583 46.5136 32.5167L38.9875 14.3308C38.2226 12.4801 36.3966 11.345 34.5706 11.2957C33.929 11.271 33.2134 11.3944 32.5719 11.6165L3.08446 23.9543C2.18138 24.3031 1.40419 24.9156 0.854065 25.7122C0.303936 26.5088 0.00633606 27.4525 0 28.4206C0 29.0622 0.148054 29.7037 0.370135 30.3206L7.89621 48.4819C8.39057 49.6891 9.34412 50.6506 10.5472 51.155C11.7503 51.6593 13.1044 51.6653 14.3119 51.1715ZM4.93513 11.3204C3.62625 11.3204 2.37098 11.8403 1.44547 12.7658C0.519949 13.6913 0 14.9466 0 16.2555L0 19.8335L20.5795 11.3204" fill="url(#paint0_linear_62_1200)"/>
<path d="M9.72446 29.6816L14.154 27.814L16.0022 32.1973L11.5727 34.065L9.72446 29.6816ZM13.4209 38.4484L17.8504 36.5807L19.6986 40.9641L15.2691 42.8317L13.4209 38.4484ZM18.5835 25.9463L23.013 24.0786L24.8612 28.462L20.4317 30.3297L18.5835 25.9463ZM22.2799 34.713L26.7094 32.8454L28.5576 37.2287L24.1281 39.0964L22.2799 34.713ZM27.4425 22.211L31.872 20.3433L33.7202 24.7267L29.2907 26.5943L27.4425 22.211ZM31.1389 30.9777L35.5684 29.11L37.4166 33.4934L32.9871 35.3611L31.1389 30.9777Z" fill="#FEFEFE"/>
<defs>
<linearGradient id="paint0_linear_62_1200" x1="31.9047" y1="41.9319" x2="15.9524" y2="10.483" gradientUnits="userSpaceOnUse">
<stop stop-color="#162ECE"/>
<stop offset="1" stop-color="#C8CDEB"/>
</linearGradient>
</defs>
</svg>
