<svg width="46" height="62" viewBox="0 0 46 62" fill="none" xmlns="http://www.w3.org/2000/svg">
<path d="M33.0194 16.5806H10.2694C9.83846 16.5806 9.42514 16.7537 9.12039 17.0617C8.81564 17.3698 8.64444 17.7877 8.64444 18.2234L10.6444 37.9377C10.6444 38.3734 10.8156 38.7913 11.1204 39.0994C11.4251 39.4075 11.8385 39.5806 12.2694 39.5806H35.0194C35.4504 39.5806 35.8637 39.4075 36.1685 39.0994C36.4732 38.7913 36.6444 38.3734 36.6444 37.9377L34.6444 18.2234C34.6444 17.7877 34.4732 17.3698 34.1685 17.0617C33.8637 16.7537 33.4504 16.5806 33.0194 16.5806ZM15.2669 19.8663C15.749 19.8663 16.2203 20.0108 16.6211 20.2816C17.022 20.5524 17.3344 20.9372 17.5189 21.3875C17.7034 21.8378 17.7517 22.3333 17.6576 22.8113C17.5636 23.2893 17.3314 23.7284 16.9905 24.0731C16.6496 24.4177 16.2153 24.6524 15.7425 24.7475C15.2696 24.8426 14.7795 24.7938 14.3341 24.6073C13.8888 24.4208 13.5081 24.1049 13.2402 23.6997C12.9724 23.2944 12.8294 22.818 12.8294 22.3306C12.8294 21.677 13.0862 21.0502 13.5434 20.5881C14.0005 20.1259 14.6205 19.8663 15.2669 19.8663ZM12.8944 35.4734V32.1056L17.7694 27.1113C17.9217 26.9583 18.1276 26.8724 18.3423 26.8724C18.5569 26.8724 18.7628 26.9583 18.9151 27.1113L21.0194 29.1895L14.7794 35.4734H12.8944ZM32.3944 35.4734H17.0788L22.1407 30.3559L26.5282 25.9202C26.6804 25.7672 26.8864 25.6813 27.101 25.6813C27.3157 25.6813 27.5216 25.7672 27.6738 25.9202L32.3944 30.6927V35.4734Z" fill="#162ECE"/>
<path d="M2.37573 9.38184L38.5923 9.98261L43.2889 57.7615L7.07232 57.1608L2.37573 9.38184Z" stroke="#C8CDEB" stroke-width="4" stroke-linecap="round" stroke-linejoin="round"/>
<path d="M34.5682 9.9152L33.8585 2.3936L2.37573 9.38173" stroke="#C8CDEB" stroke-width="4" stroke-linecap="round" stroke-linejoin="round"/>
</svg>
