<svg width="56" height="40" viewBox="0 0 56 40" fill="none" xmlns="http://www.w3.org/2000/svg">
<path d="M5.52544 3.76271C5.52544 3.29521 5.84463 2.84686 6.4128 2.51629C6.98098 2.18571 7.75158 2 8.5551 2H50.9704C51.7739 2 52.5445 2.18571 53.1126 2.51629C53.6808 2.84686 54 3.29521 54 3.76271V35.4915C54 35.959 53.6808 36.4074 53.1126 36.738C52.5445 37.0685 51.7739 37.2542 50.9704 37.2542H8.5551C7.75158 37.2542 6.98098 37.0685 6.4128 36.738C5.84463 36.4074 5.52544 35.959 5.52544 35.4915V3.76271Z" stroke="url(#paint0_linear_62_1189)" stroke-width="3.52542" stroke-linejoin="round"/>
<path d="M45.1865 3.7627V35.4915" stroke="url(#paint1_linear_62_1189)" stroke-width="3.52542" stroke-linecap="round" stroke-linejoin="round"/>
<path d="M2 10.814H9.05085" stroke="#162ECE" stroke-width="3.52542" stroke-linecap="round" stroke-linejoin="round"/>
<path d="M2 19.627H9.05085" stroke="#162ECE" stroke-width="3.52542" stroke-linecap="round" stroke-linejoin="round"/>
<path d="M2 28.4409H9.05085" stroke="#162ECE" stroke-width="3.52542" stroke-linecap="round" stroke-linejoin="round"/>
<path d="M17.8903 9.94605C17.8903 9.70887 17.7961 9.4814 17.6283 9.31369C17.4606 9.14598 17.2332 9.05176 16.996 9.05176C16.7588 9.05176 16.5313 9.14598 16.3636 9.31369C16.1959 9.4814 16.1017 9.70887 16.1017 9.94605V27.2356C16.1017 28.3875 17.0365 29.3223 18.1884 29.3223H35.478C35.7152 29.3223 35.9426 29.2281 36.1103 29.0604C36.278 28.8927 36.3723 28.6652 36.3723 28.428C36.3723 28.1909 36.278 27.9634 36.1103 27.7957C35.9426 27.628 35.7152 27.5337 35.478 27.5337H18.1884C18.1093 27.5337 18.0335 27.5023 17.9776 27.4464C17.9217 27.3905 17.8903 27.3147 17.8903 27.2356V9.94605ZM28.6218 12.927C28.6218 12.6898 28.716 12.4624 28.8837 12.2947C29.0514 12.1269 29.2789 12.0327 29.516 12.0327H35.4804C35.7175 12.0327 35.945 12.1269 36.1127 12.2947C36.2804 12.4624 36.3746 12.6898 36.3746 12.927V18.8949C36.3746 19.1321 36.2804 19.3596 36.1127 19.5273C35.945 19.695 35.7175 19.7892 35.4804 19.7892C35.2432 19.7892 35.0157 19.695 34.848 19.5273C34.6803 19.3596 34.5861 19.1321 34.5861 18.8949V15.084L28.3594 21.3095C28.1917 21.477 27.9645 21.571 27.7275 21.571C27.4905 21.571 27.2632 21.477 27.0955 21.3095L24.7465 18.9605L20.907 22.8C20.7375 22.9579 20.5133 23.0439 20.2816 23.0398C20.0499 23.0358 19.8288 22.9419 19.665 22.7781C19.5012 22.6142 19.4073 22.3932 19.4032 22.1615C19.3991 21.9298 19.4851 21.7056 19.6431 21.536L24.1145 17.0646C24.2822 16.8971 24.5095 16.8031 24.7465 16.8031C24.9835 16.8031 25.2108 16.8971 25.3785 17.0646L27.7275 19.4136L33.3198 13.8213H29.516C29.2789 13.8213 29.0514 13.7271 28.8837 13.5594C28.716 13.3917 28.6218 13.1642 28.6218 12.927Z" fill="#162ECE"/>
<defs>
<linearGradient id="paint0_linear_62_1189" x1="48.5313" y1="8.44382" x2="49.1945" y2="33.5233" gradientUnits="userSpaceOnUse">
<stop stop-color="#162ECE"/>
<stop offset="1" stop-color="#C8CDEB"/>
</linearGradient>
<linearGradient id="paint1_linear_62_1189" x1="46.0736" y1="9.56213" x2="57.2528" y2="19.2521" gradientUnits="userSpaceOnUse">
<stop stop-color="#162ECE"/>
<stop offset="1" stop-color="#C8CDEB"/>
</linearGradient>
</defs>
</svg>
