<svg width="51" height="51" viewBox="0 0 51 51" fill="none" xmlns="http://www.w3.org/2000/svg">
<path d="M48.9998 21.9999C48.9998 22.6562 48.9842 23.1718 48.953 23.5468C48.9217 23.9218 48.7889 24.3906 48.5545 24.953C48.3202 25.5155 47.9686 26.0312 47.4999 26.4999L26.4999 47.4999C26.0312 47.9686 25.5155 48.3202 24.953 48.5545C24.3906 48.7889 23.9218 48.9217 23.5468 48.953C23.1718 48.9842 22.6562 48.9998 21.9999 48.9998V48.7655C18.0937 48.2967 14.539 46.953 11.3359 44.7342C8.13279 42.5155 5.60936 39.6718 3.76562 36.203C1.92187 32.7343 1 28.9999 1 24.9999C1 21.7499 1.63281 18.6406 2.89843 15.6718C4.16405 12.7031 5.86717 10.1484 8.00779 8.00779C10.1484 5.86717 12.7031 4.16405 15.6718 2.89843C18.6406 1.63281 21.7499 1 24.9999 1C28.9999 1 32.7343 1.92187 36.203 3.76562C39.6718 5.60936 42.5155 8.13279 44.7342 11.3359C46.953 14.539 48.2967 18.0937 48.7655 21.9999H48.9998ZM24.9999 3.99999C22.1562 3.99999 19.4374 4.55468 16.8437 5.66405C14.25 6.77342 12.0156 8.2656 10.1406 10.1406C8.2656 12.0156 6.77342 14.25 5.66405 16.8437C4.55468 19.4374 3.99999 22.1562 3.99999 24.9999C3.99999 28.4687 4.78905 31.7108 6.36717 34.7265C7.94529 37.7421 10.1093 40.2186 12.8593 42.1561C15.6093 44.0936 18.6562 45.2967 21.9999 45.7655C22.0312 42.5467 22.6796 39.4843 23.9452 36.578C25.2109 33.6718 26.9062 31.1562 29.0312 29.0312C31.1562 26.9062 33.6718 25.2109 36.578 23.9452C39.4843 22.6796 42.5467 22.0312 45.7655 21.9999C45.2967 18.6562 44.0936 15.6093 42.1561 12.8593C40.2186 10.1093 37.7421 7.94529 34.7265 6.36717C31.7108 4.78905 28.4687 3.99999 24.9999 3.99999Z" fill="url(#paint0_linear_62_1182)" stroke="url(#paint1_linear_62_1182)" stroke-width="1.55882"/>
<path d="M39.9433 48.9999C44.9451 48.9999 48.9998 44.9451 48.9998 39.9433C48.9998 34.9415 44.9451 30.8867 39.9433 30.8867C34.9415 30.8867 30.8867 34.9415 30.8867 39.9433C30.8867 44.9451 34.9415 48.9999 39.9433 48.9999Z" fill="#FEFEFE" stroke="#C8CDEB" stroke-width="3"/>
<path d="M36.3206 39.4909L39.0376 42.2079L43.5659 36.7739" stroke="#C8CDEB" stroke-width="3" stroke-linecap="round" stroke-linejoin="round"/>
<defs>
<linearGradient id="paint0_linear_62_1182" x1="24.5833" y1="44.7141" x2="22.9959" y2="1.05772" gradientUnits="userSpaceOnUse">
<stop stop-color="#162ECE"/>
<stop offset="1" stop-color="#C8CDEB"/>
</linearGradient>
<linearGradient id="paint1_linear_62_1182" x1="24.5833" y1="44.7141" x2="22.9959" y2="1.05772" gradientUnits="userSpaceOnUse">
<stop stop-color="#162ECE"/>
<stop offset="1" stop-color="#C8CDEB"/>
</linearGradient>
</defs>
</svg>
