<svg width="59" height="54" viewBox="0 0 59 54" fill="none" xmlns="http://www.w3.org/2000/svg">
<path d="M41.6303 11.6943H16.4422C15.9651 11.6943 15.5074 11.8839 15.17 12.2213C14.8326 12.5587 14.6431 13.0163 14.6431 13.4935V35.0833C14.6431 35.5604 14.8326 36.0181 15.17 36.3555C15.5074 36.6929 15.9651 36.8824 16.4422 36.8824H41.6303C42.1075 36.8824 42.5651 36.6929 42.9025 36.3555C43.2399 36.0181 43.4294 35.5604 43.4294 35.0833V13.4935C43.4294 13.0163 43.2399 12.5587 42.9025 12.2213C42.5651 11.8839 42.1075 11.6943 41.6303 11.6943ZM20.8681 15.2926C21.4019 15.2926 21.9236 15.4509 22.3675 15.7475C22.8113 16.044 23.1572 16.4655 23.3614 16.9586C23.5657 17.4517 23.6191 17.9944 23.515 18.5179C23.4109 19.0414 23.1538 19.5222 22.7764 19.8996C22.399 20.2771 21.9181 20.5341 21.3946 20.6382C20.8711 20.7424 20.3285 20.6889 19.8354 20.4847C19.3422 20.2804 18.9208 19.9345 18.6242 19.4907C18.3277 19.0469 18.1694 18.5251 18.1694 17.9914C18.1694 17.2756 18.4537 16.5892 18.9598 16.0831C19.4659 15.577 20.1524 15.2926 20.8681 15.2926ZM18.2414 32.3845V28.6963L23.6388 23.2269C23.8074 23.0593 24.0354 22.9653 24.273 22.9653C24.5107 22.9653 24.7387 23.0593 24.9072 23.2269L27.2371 25.5028L20.3284 32.3845H18.2414ZM39.8312 32.3845H22.8742L28.4785 26.7802L33.3362 21.9225C33.5048 21.755 33.7328 21.6609 33.9704 21.6609C34.2081 21.6609 34.4361 21.755 34.6046 21.9225L39.8312 27.149V32.3845Z" fill="url(#paint0_linear_62_1138)"/>
<path d="M50.7146 0C52.8384 0 54.8751 0.849373 56.3769 2.36127C57.8786 3.87316 58.7222 5.92372 58.7222 8.06186V13.4364H53.3838V45.6839C53.3838 47.822 52.5402 49.8726 51.0385 51.3845C49.5368 52.8964 47.5 53.7458 45.3763 53.7458H8.00758C5.88383 53.7458 3.84708 52.8964 2.34536 51.3845C0.843653 49.8726 0 47.822 0 45.6839V40.3093H42.7071V45.6839C42.7072 46.3421 42.9472 46.9774 43.3816 47.4693C43.8161 47.9611 44.4147 48.2754 45.064 48.3524L45.3763 48.3712C46.03 48.3711 46.661 48.1294 47.1496 47.6921C47.6382 47.2547 47.9503 46.652 48.0268 45.9983L48.0455 45.6839V5.37458H13.346C12.6922 5.37466 12.0612 5.61631 11.5726 6.05369C11.0841 6.49108 10.7719 7.09377 10.6955 7.74745L10.6768 8.06186V34.9347H5.33838V8.06186C5.33838 5.92372 6.18204 3.87316 7.68375 2.36127C9.18546 0.849373 11.2222 0 13.346 0H50.7146Z" fill="#C8CDEB"/>
<defs>
<linearGradient id="paint0_linear_62_1138" x1="28.7864" y1="34.6335" x2="28.0573" y2="11.7175" gradientUnits="userSpaceOnUse">
<stop stop-color="#162ECE"/>
<stop offset="1" stop-color="#C8CDEB"/>
</linearGradient>
</defs>
</svg>
