<svg width="50" height="50" viewBox="0 0 50 50" fill="none" xmlns="http://www.w3.org/2000/svg">
<path d="M49 22C49 22.6562 48.9844 23.1719 48.9531 23.5469C48.9219 23.9219 48.7891 24.3906 48.5547 24.9531C48.3203 25.5156 47.9688 26.0312 47.5 26.5L26.5 47.5C26.0312 47.9688 25.5156 48.3203 24.9531 48.5547C24.3906 48.7891 23.9219 48.9219 23.5469 48.9531C23.1719 48.9844 22.6562 49 22 49V48.7656C18.0938 48.2969 14.5391 46.9531 11.3359 44.7344C8.13281 42.5156 5.60938 39.6719 3.76562 36.2031C1.92188 32.7344 1 29 1 25C1 21.75 1.63281 18.6406 2.89844 15.6719C4.16406 12.7031 5.86719 10.1484 8.00781 8.00781C10.1484 5.86719 12.7031 4.16406 15.6719 2.89844C18.6406 1.63281 21.75 1 25 1C29 1 32.7344 1.92188 36.2031 3.76562C39.6719 5.60938 42.5156 8.13281 44.7344 11.3359C46.9531 14.5391 48.2969 18.0938 48.7656 22H49ZM25 4C22.1562 4 19.4375 4.55469 16.8438 5.66406C14.25 6.77344 12.0156 8.26562 10.1406 10.1406C8.26562 12.0156 6.77344 14.25 5.66406 16.8438C4.55469 19.4375 4 22.1562 4 25C4 28.4688 4.78906 31.7109 6.36719 34.7266C7.94531 37.7422 10.1094 40.2188 12.8594 42.1562C15.6094 44.0938 18.6562 45.2969 22 45.7656C22.0312 42.5469 22.6797 39.4844 23.9453 36.5781C25.2109 33.6719 26.9062 31.1562 29.0312 29.0312C31.1562 26.9062 33.6719 25.2109 36.5781 23.9453C39.4844 22.6797 42.5469 22.0312 45.7656 22C45.2969 18.6562 44.0938 15.6094 42.1562 12.8594C40.2188 10.1094 37.7422 7.94531 34.7266 6.36719C31.7109 4.78906 28.4688 4 25 4Z" fill="url(#paint0_linear_62_1181)" stroke="url(#paint1_linear_62_1181)" stroke-width="1.55882"/>
<defs>
<linearGradient id="paint0_linear_62_1181" x1="24.5833" y1="44.7143" x2="22.996" y2="1.05772" gradientUnits="userSpaceOnUse">
<stop stop-color="#162ECE"/>
<stop offset="1" stop-color="#C8CDEB"/>
</linearGradient>
<linearGradient id="paint1_linear_62_1181" x1="24.5833" y1="44.7143" x2="22.996" y2="1.05772" gradientUnits="userSpaceOnUse">
<stop stop-color="#162ECE"/>
<stop offset="1" stop-color="#C8CDEB"/>
</linearGradient>
</defs>
</svg>
