<svg width="61" height="43" viewBox="0 0 61 43" fill="none" xmlns="http://www.w3.org/2000/svg">
<path d="M57.5122 36.5878L53.716 38.21L53.6001 12.3329L60.5725 29.0943C61.7493 32.0119 60.1781 35.3723 57.5122 36.5878Z" fill="#C8CDEB"/>
<path d="M4.22098 42.6164H47.5739C49.9017 42.6164 51.7949 40.7051 51.7949 38.3548V8.52329C51.7949 6.17299 49.9017 4.26164 47.5739 4.26164H43.3529V0H39.1319V4.26164H12.6629V0H8.44195V4.26164H4.22098C1.89311 4.26164 0 6.17299 0 8.52329V38.3548C0 40.7051 1.89311 42.6164 4.22098 42.6164ZM47.5739 12.7849L47.576 38.3548H4.22098V12.7849H47.5739Z" fill="url(#paint0_linear_62_1163)"/>
<path d="M11.3697 18.8594H15.5907V23.121H11.3697V18.8594ZM11.3697 27.3827H15.5907V31.6443H11.3697V27.3827ZM19.8117 18.8594H24.0327V23.121H19.8117V18.8594ZM19.8117 27.3827H24.0327V31.6443H19.8117V27.3827ZM28.2536 18.8594H32.4746V23.121H28.2536V18.8594ZM28.2536 27.3827H32.4746V31.6443H28.2536V27.3827Z" fill="#162ECE"/>
<path d="M19.4909 18.8594H23.7119V23.121H19.4909V18.8594ZM19.4909 27.3827H23.7119V31.6443H19.4909V27.3827ZM27.9328 18.8594H32.1538V23.121H27.9328V18.8594ZM27.9328 27.3827H32.1538V31.6443H27.9328V27.3827ZM36.3748 18.8594H40.5958V23.121H36.3748V18.8594ZM36.3748 27.3827H40.5958V31.6443H36.3748V27.3827Z" fill="#162ECE"/>
<defs>
<linearGradient id="paint0_linear_62_1163" x1="30.0485" y1="5.73962" x2="49.0884" y2="36.5833" gradientUnits="userSpaceOnUse">
<stop stop-color="#162ECE"/>
<stop offset="1" stop-color="#C8CDEB"/>
</linearGradient>
</defs>
</svg>
