<svg width="51" height="53" viewBox="0 0 51 53" fill="none" xmlns="http://www.w3.org/2000/svg">
<path d="M49.8843 0.991981C49.7327 0.614372 49.4414 0.309755 49.0709 0.1415C48.7004 -0.0267554 48.2793 -0.0456938 47.8952 0.0886245C47.5111 0.222943 47.1935 0.500176 47.0086 0.86265C46.8237 1.22512 46.7857 1.64493 46.9024 2.03474C49.3303 9.01257 44.5111 14.2237 40.8367 17.0149L39.3523 14.8875C38.8531 14.1741 37.7372 13.5808 36.8695 13.5704L28.5379 13.607C27.5201 13.6377 26.5296 13.9429 25.671 14.4903L1.12052 31.7049C0.549471 32.1068 0.160919 32.7185 0.0399337 33.4062C-0.0810515 34.0939 0.0753886 34.8015 0.475002 35.3741L11.6317 51.3369C12.468 52.526 13.8034 52.3823 14.9952 51.5512L39.5457 34.334C40.2513 33.8348 41.0667 32.7581 41.3541 31.9349L43.9623 23.7157C44.2498 22.8951 44.0747 21.6432 43.5755 20.9298L42.6713 19.6335C47.6054 15.8519 52.7277 9.16938 49.8843 0.991981ZM38.4611 25.4484C38.0088 25.765 37.4986 25.9893 36.9595 26.1087C36.4205 26.228 35.8633 26.24 35.3196 26.1438C34.776 26.0477 34.2566 25.8455 33.7912 25.5485C33.3257 25.2516 32.9233 24.8659 32.607 24.4135C31.9665 23.4979 31.7155 22.3656 31.9091 21.2651C32.1026 20.1646 32.7249 19.1859 33.6393 18.5437C34.3562 18.0415 35.2121 17.7757 36.0874 17.7837C36.9627 17.7917 37.8136 18.0729 38.5212 18.5881C37.8103 19.0167 37.3216 19.2676 37.2302 19.3068C36.9062 19.4613 36.6443 19.7212 36.4874 20.044C36.3305 20.3668 36.2879 20.7333 36.3665 21.0835C36.4452 21.4337 36.6405 21.7467 36.9204 21.9714C37.2002 22.1961 37.5481 22.319 37.907 22.3201C38.1318 22.3201 38.3618 22.2678 38.5787 22.1659C39.0857 21.9255 39.6293 21.6406 40.1964 21.3035C40.3268 22.0877 40.2332 22.8928 39.9262 23.6261C39.6192 24.3594 39.1113 24.991 38.4611 25.4484Z" fill="url(#paint0_linear_62_1188)"/>
<defs>
<linearGradient id="paint0_linear_62_1188" x1="44.98" y1="9.54153" x2="46.3694" y2="46.6513" gradientUnits="userSpaceOnUse">
<stop stop-color="#162ECE"/>
<stop offset="1" stop-color="#C8CDEB"/>
</linearGradient>
</defs>
</svg>
