<svg width="26" height="22" viewBox="0 0 26 22" fill="none" xmlns="http://www.w3.org/2000/svg">
<path d="M2.10169 4.87787C1.54022 5.23625 1.07816 5.73039 0.758216 6.31461C0.43827 6.89884 0.270763 7.55429 0.27118 8.22038V15.5424C0.27118 19.0814 3.13898 21.9492 6.67796 21.9492H17.661C19.0644 21.9492 20.2982 21.2194 21.0035 20.1187H6.67796C5.46426 20.1187 4.30026 19.6365 3.44205 18.7783C2.58383 17.9201 2.10169 16.7561 2.10169 15.5424V4.87787ZM3.32203 5.60885V14.9322C3.32196 15.9453 3.70955 16.92 4.40529 17.6563C5.10102 18.3927 6.05216 18.8349 7.06359 18.8922L7.28813 18.8983H21.322C22.3351 18.8984 23.3097 18.5108 24.0461 17.8151C24.7825 17.1193 25.2247 16.1682 25.282 15.1568L25.2881 14.9322V5.60885L14.7322 11.1663C14.6005 11.2357 14.4539 11.2721 14.3051 11.2721C14.1562 11.2721 14.0096 11.2357 13.878 11.1663L3.32203 5.60885ZM21.322 0.593262H7.28813C6.40256 0.593208 5.54244 0.889441 4.84472 1.43479C4.147 1.98014 3.65179 2.74326 3.43796 3.60262L14.3051 9.32113L25.1722 3.60262C24.9676 2.78179 24.5061 2.04781 23.855 1.50777C23.2038 0.96772 22.3972 0.649869 21.5527 0.600584L21.322 0.593262Z" fill="#162ECE"/>
</svg>
