<svg width="23" height="23" viewBox="0 0 23 23" fill="none" xmlns="http://www.w3.org/2000/svg">
<path fill-rule="evenodd" clip-rule="evenodd" d="M1.91064 7.6443L1.88135 7.5601C1.22237 5.67223 0.661011 3.09244 0.661011 1.5426C0.661011 0.871418 1.21016 0.322266 1.88135 0.322266H5.54237C6.18967 0.322266 6.81047 0.579408 7.26819 1.03712C7.7259 1.49484 7.98305 2.11564 7.98305 2.76294V5.20362C7.98305 5.85093 7.7259 6.47173 7.26819 6.92944C6.81047 7.38716 6.18967 7.6443 5.54237 7.6443H4.52094C5.50621 10.0715 6.96824 12.2765 8.82056 14.1288C10.6729 15.9811 12.8779 17.4432 15.3051 18.4284V17.407C15.3051 16.7597 15.5622 16.1389 16.0199 15.6812C16.4777 15.2235 17.0984 14.9663 17.7458 14.9663H20.1864C20.8337 14.9663 21.4545 15.2235 21.9123 15.6812C22.37 16.1389 22.6271 16.7597 22.6271 17.407V21.068C22.6271 21.6172 21.9559 22.2884 21.4068 22.2884C19.3017 22.2884 17.2088 21.7319 15.3051 21.068C9.06427 18.8324 4.11701 13.8851 1.91064 7.6443Z" fill="#162ECE"/>
</svg>
