<svg width="22" height="22" viewBox="0 0 22 22" fill="none" xmlns="http://www.w3.org/2000/svg">
<path d="M6.0498 2.2002C5.32046 2.2002 4.62099 2.48993 4.10526 3.00565C3.58954 3.52138 3.2998 4.22085 3.2998 4.9502V14.8502C3.2998 15.5795 3.58954 16.279 4.10526 16.7947C4.62099 17.3105 5.32046 17.6002 6.0498 17.6002H13.7498C14.4791 17.6002 15.1786 17.3105 15.6943 16.7947C16.2101 16.279 16.4998 15.5795 16.4998 14.8502V4.9502C16.4998 4.22085 16.2101 3.52138 15.6943 3.00565C15.1786 2.48993 14.4791 2.2002 13.7498 2.2002H6.0498ZM5.4998 5.5002C5.4998 5.20846 5.6157 4.92867 5.82199 4.72238C6.02828 4.51609 6.30807 4.4002 6.5998 4.4002H13.1998C13.4915 4.4002 13.7713 4.51609 13.9776 4.72238C14.1839 4.92867 14.2998 5.20846 14.2998 5.5002V7.7002C14.2998 7.99193 14.1839 8.27172 13.9776 8.47801C13.7713 8.6843 13.4915 8.8002 13.1998 8.8002H6.5998C6.30807 8.8002 6.02828 8.6843 5.82199 8.47801C5.6157 8.27172 5.4998 7.99193 5.4998 7.7002V5.5002ZM5.4998 11.0002C5.4998 10.7085 5.6157 10.4287 5.82199 10.2224C6.02828 10.0161 6.30807 9.9002 6.5998 9.9002C6.89154 9.9002 7.17133 10.0161 7.37762 10.2224C7.58391 10.4287 7.6998 10.7085 7.6998 11.0002C7.6998 11.2919 7.58391 11.5717 7.37762 11.778C7.17133 11.9843 6.89154 12.1002 6.5998 12.1002C6.30807 12.1002 6.02828 11.9843 5.82199 11.778C5.6157 11.5717 5.4998 11.2919 5.4998 11.0002ZM9.89981 9.9002C10.1915 9.9002 10.4713 10.0161 10.6776 10.2224C10.8839 10.4287 10.9998 10.7085 10.9998 11.0002C10.9998 11.2919 10.8839 11.5717 10.6776 11.778C10.4713 11.9843 10.1915 12.1002 9.89981 12.1002C9.60807 12.1002 9.32828 11.9843 9.12199 11.778C8.9157 11.5717 8.7998 11.2919 8.7998 11.0002C8.7998 10.7085 8.9157 10.4287 9.12199 10.2224C9.32828 10.0161 9.60807 9.9002 9.89981 9.9002ZM9.89981 12.9252C10.1915 12.9252 10.4713 13.0411 10.6776 13.2474C10.8839 13.4537 10.9998 13.7335 10.9998 14.0252C10.9998 14.3169 10.8839 14.5967 10.6776 14.803C10.4713 15.0093 10.1915 15.1252 9.89981 15.1252C9.60807 15.1252 9.32828 15.0093 9.12199 14.803C8.9157 14.5967 8.7998 14.3169 8.7998 14.0252C8.7998 13.7335 8.9157 13.4537 9.12199 13.2474C9.32828 13.0411 9.60807 12.9252 9.89981 12.9252ZM12.0998 11.0002C12.0998 10.7085 12.2157 10.4287 12.422 10.2224C12.6283 10.0161 12.9081 9.9002 13.1998 9.9002C13.4915 9.9002 13.7713 10.0161 13.9776 10.2224C14.1839 10.4287 14.2998 10.7085 14.2998 11.0002C14.2998 11.2919 14.1839 11.5717 13.9776 11.778C13.7713 11.9843 13.4915 12.1002 13.1998 12.1002C12.9081 12.1002 12.6283 11.9843 12.422 11.778C12.2157 11.5717 12.0998 11.2919 12.0998 11.0002ZM13.1998 12.9252C13.4915 12.9252 13.7713 13.0411 13.9776 13.2474C14.1839 13.4537 14.2998 13.7335 14.2998 14.0252C14.2998 14.3169 14.1839 14.5967 13.9776 14.803C13.7713 15.0093 13.4915 15.1252 13.1998 15.1252C12.9081 15.1252 12.6283 15.0093 12.422 14.803C12.2157 14.5967 12.0998 14.3169 12.0998 14.0252C12.0998 13.7335 12.2157 13.4537 12.422 13.2474C12.6283 13.0411 12.9081 12.9252 13.1998 12.9252ZM6.5998 12.9252C6.89154 12.9252 7.17133 13.0411 7.37762 13.2474C7.58391 13.4537 7.6998 13.7335 7.6998 14.0252C7.6998 14.3169 7.58391 14.5967 7.37762 14.803C7.17133 15.0093 6.89154 15.1252 6.5998 15.1252C6.30807 15.1252 6.02828 15.0093 5.82199 14.803C5.6157 14.5967 5.4998 14.3169 5.4998 14.0252C5.4998 13.7335 5.6157 13.4537 5.82199 13.2474C6.02828 13.0411 6.30807 12.9252 6.5998 12.9252ZM8.2498 19.8002C7.82282 19.8005 7.40164 19.7013 7.01973 19.5103C6.63783 19.3194 6.30572 19.042 6.0498 18.7002H13.7498C14.7709 18.7002 15.7502 18.2946 16.4722 17.5726C17.1942 16.8505 17.5998 15.8713 17.5998 14.8502V4.9502C18.2675 5.4518 18.6998 6.2504 18.6998 7.1502V14.8502C18.6998 16.163 18.1783 17.4221 17.25 18.3504C16.3217 19.2787 15.0626 19.8002 13.7498 19.8002H8.2498Z" fill="#162ECE"/>
</svg>
