<svg width="22" height="22" viewBox="0 0 22 22" fill="none" xmlns="http://www.w3.org/2000/svg">
<path d="M15.1013 4.95717L17.0428 6.89776L15.1013 4.95717ZM16.3498 3.24759L11.1001 8.49734C10.8288 8.76821 10.6438 9.11333 10.5684 9.48917L10.0835 11.9165L12.5108 11.4307C12.8867 11.3555 13.2313 11.1713 13.5027 10.8999L18.7524 5.65017C18.9102 5.49242 19.0353 5.30514 19.1207 5.09902C19.2061 4.8929 19.25 4.67198 19.25 4.44888C19.25 4.22578 19.2061 4.00487 19.1207 3.79875C19.0353 3.59263 18.9102 3.40535 18.7524 3.24759C18.5947 3.08984 18.4074 2.9647 18.2013 2.87932C17.9951 2.79394 17.7742 2.75 17.5511 2.75C17.328 2.75 17.1071 2.79394 16.901 2.87932C16.6949 2.9647 16.5076 3.08984 16.3498 3.24759V3.24759Z" stroke="#162ECE" stroke-width="2" stroke-linecap="round" stroke-linejoin="round"/>
<path d="M17.4167 13.7502V16.5002C17.4167 16.9864 17.2236 17.4527 16.8798 17.7965C16.536 18.1403 16.0696 18.3335 15.5834 18.3335H5.50008C5.01385 18.3335 4.54754 18.1403 4.20372 17.7965C3.8599 17.4527 3.66675 16.9864 3.66675 16.5002V6.41683C3.66675 5.9306 3.8599 5.46428 4.20372 5.12047C4.54754 4.77665 5.01385 4.5835 5.50008 4.5835H8.25008" stroke="#162ECE" stroke-width="2" stroke-linecap="round" stroke-linejoin="round"/>
</svg>
