<svg width="23" height="22" viewBox="0 0 23 22" fill="none" xmlns="http://www.w3.org/2000/svg">
<path d="M20.2082 5.5C20.2081 5.72452 20.1257 5.94123 19.9765 6.10901C19.8273 6.27679 19.6217 6.38398 19.3988 6.41025L19.2915 6.41667H18.5169L17.3885 17.8933C17.3271 18.5161 17.0362 19.0937 16.5725 19.5139C16.1088 19.9341 15.5054 20.1667 14.8796 20.1667H8.12009C7.49432 20.1667 6.8909 19.9341 6.42719 19.5139C5.96347 19.0937 5.67261 18.5161 5.61117 17.8933L4.48275 6.41667H3.70817C3.46506 6.41667 3.2319 6.32009 3.05999 6.14818C2.88808 5.97627 2.7915 5.74312 2.7915 5.5C2.7915 5.25689 2.88808 5.02373 3.05999 4.85182C3.2319 4.67991 3.46506 4.58333 3.70817 4.58333H8.2915C8.2915 4.16201 8.37449 3.74481 8.53572 3.35556C8.69696 2.9663 8.93328 2.61262 9.2312 2.3147C9.52912 2.01678 9.88281 1.78045 10.2721 1.61922C10.6613 1.45799 11.0785 1.375 11.4998 1.375C11.9212 1.375 12.3384 1.45799 12.7276 1.61922C13.1169 1.78045 13.4705 2.01678 13.7685 2.3147C14.0664 2.61262 14.3027 2.9663 14.464 3.35556C14.6252 3.74481 14.7082 4.16201 14.7082 4.58333H19.2915C19.5346 4.58333 19.7678 4.67991 19.9397 4.85182C20.1116 5.02373 20.2082 5.25689 20.2082 5.5ZM13.5623 8.47917C13.3962 8.47917 13.2357 8.53934 13.1105 8.64854C12.9853 8.75773 12.9038 8.90858 12.8813 9.07317L12.8748 9.16667V15.5833L12.8813 15.6768C12.9039 15.8414 12.9853 15.9922 13.1105 16.1013C13.2357 16.2105 13.3962 16.2706 13.5623 16.2706C13.7284 16.2706 13.8889 16.2105 14.0141 16.1013C14.1393 15.9922 14.2208 15.8414 14.2434 15.6768L14.2498 15.5833V9.16667L14.2434 9.07317C14.2208 8.90858 14.1394 8.75773 14.0142 8.64854C13.889 8.53934 13.7285 8.47917 13.5623 8.47917ZM9.43734 8.47917C9.2712 8.47917 9.11069 8.53934 8.98548 8.64854C8.86028 8.75773 8.77885 8.90858 8.75625 9.07317L8.74984 9.16667V15.5833L8.75625 15.6768C8.77889 15.8414 8.86034 15.9922 8.98555 16.1013C9.11075 16.2105 9.27123 16.2706 9.43734 16.2706C9.60344 16.2706 9.76393 16.2105 9.88913 16.1013C10.0143 15.9922 10.0958 15.8414 10.1184 15.6768L10.1248 15.5833V9.16667L10.1184 9.07317C10.0958 8.90858 10.0144 8.75773 9.88919 8.64854C9.76398 8.53934 9.60347 8.47917 9.43734 8.47917ZM11.4998 3.20833C11.1352 3.20833 10.7854 3.3532 10.5276 3.61106C10.2697 3.86892 10.1248 4.21866 10.1248 4.58333H12.8748C12.8748 4.21866 12.73 3.86892 12.4721 3.61106C12.2142 3.3532 11.8645 3.20833 11.4998 3.20833Z" fill="#CE1616"/>
</svg>
